# xmcd
#
# Track frame offsets:
#	150
#	12822
#	34860
#	59597
#	74460
#	88085
#	102060
#	120455
#	134385
#
# Disc length: 1983 seconds
# Revision: 3
# Processed by: cddbd v1.5.2PL0 Copyright (c) Steve Scherf et al.
# Submitted via: dBpowerAMP V12.0
#
DISCID=7607bd09
DTITLE=Various Artist - Hi-Fi World ~ Rounder Records Sampler [dBP-LITE-GB-FLAC]
DYEAR=1991
DGENRE=Blues
TTITLE0=The Holmes Brothers - The Final Round
TTITLE1=The Duke Robillard Band (feat. Susann Forrest) - Passionate Kiss
TTITLE2=Johnny Adams - Body and Fender Man
TTITLE3=Rory Block - The Spirit Returns
TTITLE4=Walter 'Wolfman' Washington - Tailspin
TTITLE5=Nathan and the Zydeco Cha Chas - Ain't Gonna Cry No More
TTITLE6=Johnny Copeland - Cut Off My Right Arm
TTITLE7=Sugar Ray (feat. The Blue Tones) - The Helmet (Bluetone March)
TTITLE8=Irma Thomas - Thinking Of You
EXTD=
EXTT0=
EXTT1=
EXTT2=
EXTT3=
EXTT4=
EXTT5=
EXTT6=
EXTT7=
EXTT8=
PLAYORDER=
